<svg id="Layer_1" data-name="Layer 1" xmlns="http://www.w3.org/2000/svg" viewBox="0 0 1080.46 394.28"><defs><style>.cls-1{font-size:204.86px;font-family:Bauhaus93, "Bauhaus 93";}.cls-2{fill:#f15a24;}.cls-3{fill:none;stroke:#f15a24;stroke-miterlimit:10;}</style></defs><text class="cls-1" transform="translate(20.28 343.43) rotate(-6.82)">Crypto<tspan class="cls-2" x="631.09" y="0">Buzz</tspan></text><path class="cls-3" d="M686.4,507.41c-.37,2-1.25,3.32-3.18,3.57a3,3,0,0,1-3.58-2.71c-1-5.5-2-11-2.81-16.53a3,3,0,0,1,2.48-3.54,2.9,2.9,0,0,1,3.8,2.31C684.3,496.12,685.32,501.77,686.4,507.41Z" transform="translate(-389.53 -372.49)"/><path class="cls-3" d="M503.17,540.69c-1.07,1.29-1.64,2.56-2.57,2.93a3.76,3.76,0,0,1-3.31-.37,13.86,13.86,0,0,1-3.26-4.82,3.85,3.85,0,0,1,1-3.35c.68-.64,2.72-1,3.24-.46A56.76,56.76,0,0,1,503.17,540.69Z" transform="translate(-389.53 -372.49)"/><path class="cls-3" d="M680.64,480.48c-1,.86-1.81,2-2.95,2.54a2.67,2.67,0,0,1-3.55-1.58,15.74,15.74,0,0,1-1.34-4.29,2.64,2.64,0,0,1,2.13-3.24c1.15-.14,2.9.25,3.51,1.06C679.47,476.35,679.81,478.24,680.64,480.48Z" transform="translate(-389.53 -372.49)"/><path class="cls-3" d="M537.1,551.65a218,218,0,0,1-42.49-78.27c-3.7,3.91-7.43,7.36-10.55,11.3-2.7,3.39-2.47,7.71-1.84,11.81,1.32,8.5,4.94,16.18,8.74,23.77.65,1.29,1.34,2.55,2,3.83,1.17,2.31.83,4.2-.9,5.14s-3.73.25-4.79-2c-3.08-6.58-6.24-13.13-8.94-19.86a36.77,36.77,0,0,1-2.8-17.56,19.38,19.38,0,0,1,5.7-12.07c3.47-3.5,6.93-7,10.52-10.39a3.24,3.24,0,0,0,1-3.38c-2.26-12.39-2.39-24.74,1.56-36.85,5.46-16.8,16.5-28.51,32.91-35,7.94-3.16,15.95-2.18,23.81.46,10.89,3.65,20.13,10.08,28.64,17.63a3.18,3.18,0,0,1,.4,4.82c-1.37,1.44-3.13,1.39-5-.27-6.61-5.73-13.65-10.82-21.71-14.37-5.46-2.41-11.15-4-17.18-3.61-9.44.69-15.61,6-19.25,14.45-3.71,8.64-4.36,17.76-3.71,27,2,28.48,12.78,53.86,27.85,77.64,9.7,15.28,21.29,28.93,36,39.7,7,5.14,14.47,9.47,23.13,11.19,13.76,2.73,23.81-3.15,28.33-16.43,3-8.94,3.37-18.16,2.43-27.42-3.18-31.31-16.08-58.73-34.1-84.05a22.24,22.24,0,0,1-1.55-2.23,2.94,2.94,0,0,1,.79-4.06,3.05,3.05,0,0,1,4.32.26,6.78,6.78,0,0,1,.86,1.05c16.09,21.94,27.9,45.89,33.78,72.57,2.77,12.59,4,25.32,1.64,38.13-1.88,10.3-5.93,19.38-15.18,25.34-19.3,12.42-39,12.26-59.06,2a78.77,78.77,0,0,1-18.31-13.35,3.21,3.21,0,0,0-3.39-1c-4.49,1.08-9,1.9-13.53,3a20.25,20.25,0,0,1-16.86-3.24,46.11,46.11,0,0,1-5.28-4.3,3.12,3.12,0,0,1-.32-4.65c1.26-1.39,3-1.45,4.67-.14s3.23,2.76,5,4a13.61,13.61,0,0,0,11.28,2C529.39,553.27,533.17,552.5,537.1,551.65ZM595,572.36c-13.73-4.58-25-12.9-35.11-22.86-19.54-19.23-33.49-42.1-43.33-67.56-5.88-15.2-9.73-30.88-10.06-47.29a80.29,80.29,0,0,1,2.2-20.74,5.22,5.22,0,0,0-1.52,1.64c-2.22,4.37-4.92,8.59-6.48,13.19-4.51,13.35-3.52,26.91-.22,40.34,5.7,23.18,16.62,43.95,30,63.48,8.25,12,17.88,22.76,30.27,30.73C571.22,570,582.47,573.64,595,572.36Z" transform="translate(-389.53 -372.49)"/><path class="cls-3" d="M625.35,530.52c-.32,6.43-.87,12.74-3.21,18.78-3.74,9.63-10.86,13.48-20.92,11.23-8.56-1.91-15.83-6.39-22.64-11.67-13.53-10.48-24.2-23.52-33.25-37.93-11.77-18.77-20.45-38.83-24.43-60.73-1.84-10.13-2.51-20.31-.22-30.48a36.33,36.33,0,0,1,1.36-4.57c3.73-10.08,11.07-14,21.53-11.55,8.61,2,15.9,6.61,22.72,12,14,11,25,24.7,34.15,39.84C611.71,474,620,493.67,623.63,515.18,624.48,520.25,624.79,525.4,625.35,530.52Zm-99.6-96.64a124.67,124.67,0,0,0,9.06,41.59c9.61,24.51,23.12,46.47,42.89,64.2,6.47,5.8,13.48,10.84,21.82,13.63,9.91,3.32,15.15.42,17.61-9.72,2.39-9.85,1.69-19.76-.3-29.54-6.5-31.8-21.12-59.46-43.3-83.09-7.4-7.88-15.66-14.79-25.76-19.06a34.3,34.3,0,0,0-7.83-2.21c-5.55-.88-8.75.94-11.09,6.06C526,421.89,525.8,428.48,525.75,433.88Z" transform="translate(-389.53 -372.49)"/><path class="cls-3" d="M668.26,502.34c-.24,2.07-1.46,3.57-3.27,3.58a3.13,3.13,0,0,1-3.4-2.95c-5.68-37-22.44-68.73-46.41-97a115.57,115.57,0,0,0-9-8.95c-2-1.92-2.55-3.67-1.26-5.27s3.32-1.6,5.54.32a133.11,133.11,0,0,1,22,25c15.47,22.25,27.33,46.2,33.53,72.72C667,494,667.51,498.17,668.26,502.34Z" transform="translate(-389.53 -372.49)"/><path class="cls-3" d="M674.53,463.36c-.79.78-1.57,2.06-2.7,2.56-1.56.7-3-.1-3.74-1.67-1.19-2.61-2.21-5.31-3.37-7.94-10.47-23.6-23.38-45.69-40.63-65-3.78-4.23-8-8-12.09-12-1.84-1.78-2.28-3.58-1-5.12s3.15-1.59,5.19.13c9.73,8.23,17.86,17.91,25.32,28.17a274.57,274.57,0,0,1,31.87,57.71C673.76,461,674,461.87,674.53,463.36Z" transform="translate(-389.53 -372.49)"/><path class="cls-3" d="M650.75,498.36c0,2.86-1.17,4.33-3,4.51s-3.17-1.09-3.53-3.34c-4.8-30-18.36-55.85-38-78.72a96.16,96.16,0,0,0-7.12-7c-1.86-1.77-2.23-3.61-.89-5.13s3.17-1.55,5.19.21a117.26,117.26,0,0,1,20.85,24.52c11.42,17.32,20.24,35.82,24.87,56.16C649.9,492.73,650.33,496,650.75,498.36Z" transform="translate(-389.53 -372.49)"/><path class="cls-3" d="M586.87,418.5a8.2,8.2,0,0,1,2.36,1,35.26,35.26,0,0,1,3.92,4.37,3.19,3.19,0,0,1-4.76,4.16,22.34,22.34,0,0,1-3.74-4.23,4.16,4.16,0,0,1-.17-3.32C584.83,419.64,586.06,419.14,586.87,418.5Z" transform="translate(-389.53 -372.49)"/><path class="cls-3" d="M595,572.36c-12.56,1.28-23.81-2.38-34.22-9.07-12.39-8-22-18.72-30.27-30.73-13.41-19.53-24.33-40.3-30-63.48-3.3-13.43-4.29-27,.22-40.34,1.56-4.6,4.26-8.82,6.48-13.19a5.22,5.22,0,0,1,1.52-1.64,80.29,80.29,0,0,0-2.2,20.74c.33,16.41,4.18,32.09,10.06,47.29,9.84,25.46,23.79,48.33,43.33,67.56C570,559.46,581.3,567.78,595,572.36Z" transform="translate(-389.53 -372.49)"/><path class="cls-3" d="M525.75,433.88c0-5.4.28-12,3.1-18.14,2.34-5.12,5.54-6.94,11.09-6.06a34.3,34.3,0,0,1,7.83,2.21c10.1,4.27,18.36,11.18,25.76,19.06,22.18,23.63,36.8,51.29,43.3,83.09,2,9.78,2.69,19.69.3,29.54-2.46,10.14-7.7,13-17.61,9.72-8.34-2.79-15.35-7.83-21.82-13.63-19.77-17.73-33.28-39.69-42.89-64.2A124.67,124.67,0,0,1,525.75,433.88ZM543,461.51l.21.05c.14,1.74.18,3.49.43,5.2,2.7,18,10.83,33.25,23.36,46.22,4.4,4.55,9.42,8.35,15.69,10.06,8.14,2.23,14.65-1.37,17.14-9.45a32.6,32.6,0,0,0,.6-15.3c-2.73-16.11-10-30.07-20.73-42.22-4.85-5.49-10.39-10.22-17.58-12.46-8.4-2.61-15.43,1.17-17.77,9.65A77.52,77.52,0,0,0,543,461.51Z" transform="translate(-389.53 -372.49)"/><path class="cls-3" d="M543,461.51a77.52,77.52,0,0,1,1.35-8.25c2.34-8.48,9.37-12.26,17.77-9.65,7.19,2.24,12.73,7,17.58,12.46,10.76,12.15,18,26.11,20.73,42.22a32.6,32.6,0,0,1-.6,15.3c-2.49,8.08-9,11.68-17.14,9.45-6.27-1.71-11.29-5.51-15.69-10.06-12.53-13-20.66-28.25-23.36-46.22-.25-1.71-.29-3.46-.43-5.2Zm51.61,44c-.25-2.6-.31-4.35-.6-6.06A77.32,77.32,0,0,0,572.55,458c-3.77-3.87-8-7.2-13.5-8.42-3.83-.86-6.85.47-7.85,4.26a29.12,29.12,0,0,0-1.14,10.7c2.25,18.05,10.48,33.17,23.55,45.68a25.23,25.23,0,0,0,11.23,6.65c4.24,1.06,7.21-.41,8.53-4.59A51.58,51.58,0,0,0,594.65,505.54Z" transform="translate(-389.53 -372.49)"/><path class="cls-3" d="M594.65,505.54a51.58,51.58,0,0,1-1.28,6.73c-1.32,4.18-4.29,5.65-8.53,4.59a25.23,25.23,0,0,1-11.23-6.65c-13.07-12.51-21.3-27.63-23.55-45.68a29.12,29.12,0,0,1,1.14-10.7c1-3.79,4-5.12,7.85-4.26,5.47,1.22,9.73,4.55,13.5,8.42a77.32,77.32,0,0,1,21.5,41.49C594.34,501.19,594.4,502.94,594.65,505.54Zm-14.56-13.31a29.34,29.34,0,0,0-10.6-20c-2.06-1.71-4.54-3.24-7.24-1.61s-2.57,4.47-2.24,7.14a28.87,28.87,0,0,0,8.51,17.13,17.5,17.5,0,0,0,5.41,3.59c2.77,1.19,5.11-.24,5.8-3.2A26.72,26.72,0,0,0,580.09,492.23Z" transform="translate(-389.53 -372.49)"/><path class="cls-3" d="M580.09,492.23a26.72,26.72,0,0,1-.36,3.07c-.69,3-3,4.39-5.8,3.2a17.5,17.5,0,0,1-5.41-3.59A28.87,28.87,0,0,1,560,477.78c-.33-2.67-.38-5.55,2.24-7.14s5.18-.1,7.24,1.61A29.34,29.34,0,0,1,580.09,492.23Z" transform="translate(-389.53 -372.49)"/></svg>